<mxfile host="app.diagrams.net" modified="2024-03-26T06:36:50.879Z" agent="Mozilla/5.0 (Windows NT 10.0; Win64; x64) AppleWebKit/537.36 (KHTML, like Gecko) Chrome/122.0.0.0 Safari/537.36 Edg/122.0.0.0" etag="Ielbj6PyYzp1u_wdgTwY" version="23.0.2" type="github">
  <diagram name="Page-1" id="BZulYNVSm1c1St4roaR8">
    <mxGraphModel dx="1674" dy="845" grid="1" gridSize="10" guides="1" tooltips="1" connect="1" arrows="1" fold="1" page="1" pageScale="1" pageWidth="1100" pageHeight="850" math="0" shadow="0">
      <root>
        <mxCell id="0" />
        <mxCell id="1" parent="0" />
        <mxCell id="EctqsSSkCEb4LAzAC_fZ-7" style="edgeStyle=orthogonalEdgeStyle;rounded=0;orthogonalLoop=1;jettySize=auto;html=1;entryX=0;entryY=0.5;entryDx=0;entryDy=0;exitX=0.5;exitY=1;exitDx=0;exitDy=0;" edge="1" parent="1" source="EctqsSSkCEb4LAzAC_fZ-1" target="EctqsSSkCEb4LAzAC_fZ-5">
          <mxGeometry relative="1" as="geometry" />
        </mxCell>
        <mxCell id="EctqsSSkCEb4LAzAC_fZ-1" value="GAGREAT" style="html=1;dashed=0;whiteSpace=wrap;shape=partialRectangle;right=0;" vertex="1" parent="1">
          <mxGeometry x="80" y="200" width="80" height="40" as="geometry" />
        </mxCell>
        <mxCell id="EctqsSSkCEb4LAzAC_fZ-8" style="edgeStyle=orthogonalEdgeStyle;rounded=0;orthogonalLoop=1;jettySize=auto;html=1;entryX=0.5;entryY=0;entryDx=0;entryDy=0;" edge="1" parent="1" source="EctqsSSkCEb4LAzAC_fZ-2" target="EctqsSSkCEb4LAzAC_fZ-5">
          <mxGeometry relative="1" as="geometry" />
        </mxCell>
        <mxCell id="EctqsSSkCEb4LAzAC_fZ-2" value="SECDTA" style="html=1;dashed=0;whiteSpace=wrap;shape=partialRectangle;right=0;" vertex="1" parent="1">
          <mxGeometry x="200" y="200" width="80" height="40" as="geometry" />
        </mxCell>
        <mxCell id="EctqsSSkCEb4LAzAC_fZ-9" style="edgeStyle=orthogonalEdgeStyle;rounded=0;orthogonalLoop=1;jettySize=auto;html=1;entryX=1;entryY=0.5;entryDx=0;entryDy=0;exitX=0.5;exitY=1;exitDx=0;exitDy=0;" edge="1" parent="1" source="EctqsSSkCEb4LAzAC_fZ-3" target="EctqsSSkCEb4LAzAC_fZ-5">
          <mxGeometry relative="1" as="geometry" />
        </mxCell>
        <mxCell id="EctqsSSkCEb4LAzAC_fZ-3" value="Pulse4Ops" style="html=1;dashed=0;whiteSpace=wrap;shape=partialRectangle;right=0;" vertex="1" parent="1">
          <mxGeometry x="320" y="200" width="80" height="40" as="geometry" />
        </mxCell>
        <mxCell id="EctqsSSkCEb4LAzAC_fZ-11" value="" style="edgeStyle=orthogonalEdgeStyle;rounded=0;orthogonalLoop=1;jettySize=auto;html=1;" edge="1" parent="1" source="EctqsSSkCEb4LAzAC_fZ-4" target="EctqsSSkCEb4LAzAC_fZ-10">
          <mxGeometry relative="1" as="geometry" />
        </mxCell>
        <mxCell id="EctqsSSkCEb4LAzAC_fZ-4" value="UDP" style="html=1;dashed=0;whiteSpace=wrap;shape=partialRectangle;right=0;" vertex="1" parent="1">
          <mxGeometry x="200" y="400" width="80" height="40" as="geometry" />
        </mxCell>
        <mxCell id="EctqsSSkCEb4LAzAC_fZ-6" style="edgeStyle=orthogonalEdgeStyle;rounded=0;orthogonalLoop=1;jettySize=auto;html=1;entryX=0.5;entryY=0;entryDx=0;entryDy=0;" edge="1" parent="1" source="EctqsSSkCEb4LAzAC_fZ-5" target="EctqsSSkCEb4LAzAC_fZ-4">
          <mxGeometry relative="1" as="geometry" />
        </mxCell>
        <mxCell id="EctqsSSkCEb4LAzAC_fZ-5" value="Ingestion process" style="shape=ellipse;html=1;dashed=0;whiteSpace=wrap;perimeter=ellipsePerimeter;" vertex="1" parent="1">
          <mxGeometry x="195" y="280" width="90" height="90" as="geometry" />
        </mxCell>
        <mxCell id="EctqsSSkCEb4LAzAC_fZ-13" value="" style="edgeStyle=orthogonalEdgeStyle;rounded=0;orthogonalLoop=1;jettySize=auto;html=1;" edge="1" parent="1" source="EctqsSSkCEb4LAzAC_fZ-10" target="EctqsSSkCEb4LAzAC_fZ-12">
          <mxGeometry relative="1" as="geometry" />
        </mxCell>
        <mxCell id="EctqsSSkCEb4LAzAC_fZ-10" value="Mapping process" style="ellipse;whiteSpace=wrap;html=1;dashed=0;" vertex="1" parent="1">
          <mxGeometry x="320" y="380" width="80" height="80" as="geometry" />
        </mxCell>
        <mxCell id="EctqsSSkCEb4LAzAC_fZ-14" style="edgeStyle=orthogonalEdgeStyle;rounded=0;orthogonalLoop=1;jettySize=auto;html=1;entryX=0;entryY=0.5;entryDx=0;entryDy=0;" edge="1" parent="1" source="EctqsSSkCEb4LAzAC_fZ-12" target="EctqsSSkCEb4LAzAC_fZ-16">
          <mxGeometry relative="1" as="geometry">
            <mxPoint x="560" y="420" as="targetPoint" />
          </mxGeometry>
        </mxCell>
        <mxCell id="EctqsSSkCEb4LAzAC_fZ-12" value="Modelling process" style="ellipse;whiteSpace=wrap;html=1;dashed=0;" vertex="1" parent="1">
          <mxGeometry x="440" y="380" width="80" height="80" as="geometry" />
        </mxCell>
        <mxCell id="EctqsSSkCEb4LAzAC_fZ-16" value="Dashoard" style="shape=parallelogram;perimeter=parallelogramPerimeter;whiteSpace=wrap;html=1;dashed=0;" vertex="1" parent="1">
          <mxGeometry x="560" y="395" width="100" height="50" as="geometry" />
        </mxCell>
        <mxCell id="EctqsSSkCEb4LAzAC_fZ-20" style="edgeStyle=orthogonalEdgeStyle;rounded=0;orthogonalLoop=1;jettySize=auto;html=1;entryX=0.5;entryY=0;entryDx=0;entryDy=0;" edge="1" parent="1" source="EctqsSSkCEb4LAzAC_fZ-17" target="EctqsSSkCEb4LAzAC_fZ-19">
          <mxGeometry relative="1" as="geometry" />
        </mxCell>
        <mxCell id="EctqsSSkCEb4LAzAC_fZ-17" value="User" style="html=1;dashed=0;whiteSpace=wrap;" vertex="1" parent="1">
          <mxGeometry x="570" y="200" width="80" height="40" as="geometry" />
        </mxCell>
        <mxCell id="EctqsSSkCEb4LAzAC_fZ-21" value="" style="edgeStyle=orthogonalEdgeStyle;rounded=0;orthogonalLoop=1;jettySize=auto;html=1;" edge="1" parent="1" source="EctqsSSkCEb4LAzAC_fZ-19" target="EctqsSSkCEb4LAzAC_fZ-16">
          <mxGeometry relative="1" as="geometry" />
        </mxCell>
        <mxCell id="EctqsSSkCEb4LAzAC_fZ-19" value="Request access" style="ellipse;whiteSpace=wrap;html=1;dashed=0;" vertex="1" parent="1">
          <mxGeometry x="570" y="280" width="80" height="80" as="geometry" />
        </mxCell>
      </root>
    </mxGraphModel>
  </diagram>
</mxfile>
